<svg width="472" height="80" viewBox="0 0 472 80" fill="none" xmlns="http://www.w3.org/2000/svg">
<path d="M113.062 3.41421C114.322 2.15428 116.476 3.04662 116.476 4.82843V75.6729C116.476 76.7775 115.581 77.6729 114.476 77.6729H43.6316C41.8498 77.6729 40.9575 75.5187 42.2174 74.2587L113.062 3.41421Z" fill="#10B981" fill-opacity="0.8"/>
<path d="M74.2587 3.41421C75.5187 2.15428 77.673 3.04662 77.673 4.82843V75.6729C77.673 76.7775 76.7775 77.6729 75.673 77.6729H4.82843C3.04662 77.6729 2.15428 75.5187 3.41421 74.2587L74.2587 3.41421Z" fill="#10B981" fill-opacity="0.8"/>
<path d="M144.487 39.5631V8.28231H151.771L164.73 29.5532H160.887L173.489 8.28231H180.773L180.862 39.5631H172.729L172.64 20.6606H174.025L164.596 36.4797H160.664L150.967 20.6606H152.665V39.5631H144.487Z" fill="#0F172A"/>
<path d="M198.875 39.9652C196.224 39.9652 193.87 39.429 191.815 38.3565C189.759 37.284 188.136 35.8094 186.944 33.9325C185.782 32.0259 185.201 29.8511 185.201 27.4083C185.201 24.9654 185.782 22.8055 186.944 20.9287C188.136 19.0518 189.759 17.5921 191.815 16.5494C193.87 15.4769 196.224 14.9406 198.875 14.9406C201.527 14.9406 203.88 15.4769 205.936 16.5494C208.021 17.5921 209.645 19.0518 210.807 20.9287C211.969 22.8055 212.55 24.9654 212.55 27.4083C212.55 29.8511 211.969 32.0259 210.807 33.9325C209.645 35.8094 208.021 37.284 205.936 38.3565C203.88 39.429 201.527 39.9652 198.875 39.9652ZM198.875 33.2175C199.858 33.2175 200.722 32.9941 201.467 32.5472C202.242 32.1004 202.852 31.445 203.299 30.581C203.746 29.6873 203.97 28.6297 203.97 27.4083C203.97 26.1868 203.746 25.159 203.299 24.3249C202.852 23.4609 202.242 22.8055 201.467 22.3586C200.722 21.9118 199.858 21.6883 198.875 21.6883C197.922 21.6883 197.058 21.9118 196.284 22.3586C195.539 22.8055 194.928 23.4609 194.451 24.3249C194.005 25.159 193.781 26.1868 193.781 27.4083C193.781 28.6297 194.005 29.6873 194.451 30.581C194.928 31.445 195.539 32.1004 196.284 32.5472C197.058 32.9941 197.922 33.2175 198.875 33.2175Z" fill="#0F172A"/>
<path d="M214.97 39.5631V34.5581L228.554 18.9178L229.984 21.6437H215.282V15.3428H236.866V20.3031L223.237 35.9881L221.807 33.2175H237.313V39.5631H214.97Z" fill="#0F172A"/>
<path d="M249.587 20.3924H264.11V27.0061H249.587V20.3924ZM250.212 32.726H266.568V39.5631H241.454V8.28231H265.987V15.1194H250.212V32.726Z" fill="#0F172A"/>
<path d="M283.367 39.9652C280.685 39.9652 278.287 39.429 276.172 38.3565C274.087 37.284 272.448 35.8094 271.256 33.9325C270.065 32.0259 269.469 29.8511 269.469 27.4083C269.469 24.9654 270.065 22.8055 271.256 20.9287C272.448 19.0518 274.087 17.5921 276.172 16.5494C278.287 15.4769 280.685 14.9406 283.367 14.9406C286.107 14.9406 288.476 15.5216 290.472 16.6834C292.468 17.8453 293.883 19.4838 294.717 21.599L288.148 24.9505C287.582 23.8184 286.882 22.9992 286.048 22.4927C285.214 21.9565 284.305 21.6883 283.322 21.6883C282.339 21.6883 281.445 21.9118 280.641 22.3586C279.836 22.8055 279.196 23.4609 278.719 24.3249C278.272 25.159 278.049 26.1868 278.049 27.4083C278.049 28.6595 278.272 29.7171 278.719 30.581C279.196 31.445 279.836 32.1004 280.641 32.5472C281.445 32.9941 282.339 33.2175 283.322 33.2175C284.305 33.2175 285.214 32.9643 286.048 32.4579C286.882 31.9216 287.582 31.0875 288.148 29.9554L294.717 33.3069C293.883 35.4221 292.468 37.0606 290.472 38.2225C288.476 39.3843 286.107 39.9652 283.367 39.9652Z" fill="#0F172A"/>
<path d="M309.807 39.9652C307.155 39.9652 304.802 39.429 302.746 38.3565C300.691 37.284 299.067 35.8094 297.875 33.9325C296.714 32.0259 296.133 29.8511 296.133 27.4083C296.133 24.9654 296.714 22.8055 297.875 20.9287C299.067 19.0518 300.691 17.5921 302.746 16.5494C304.802 15.4769 307.155 14.9406 309.807 14.9406C312.458 14.9406 314.812 15.4769 316.867 16.5494C318.953 17.5921 320.576 19.0518 321.738 20.9287C322.9 22.8055 323.481 24.9654 323.481 27.4083C323.481 29.8511 322.9 32.0259 321.738 33.9325C320.576 35.8094 318.953 37.284 316.867 38.3565C314.812 39.429 312.458 39.9652 309.807 39.9652ZM309.807 33.2175C310.79 33.2175 311.654 32.9941 312.399 32.5472C313.173 32.1004 313.784 31.445 314.231 30.581C314.678 29.6873 314.901 28.6297 314.901 27.4083C314.901 26.1868 314.678 25.159 314.231 24.3249C313.784 23.4609 313.173 22.8055 312.399 22.3586C311.654 21.9118 310.79 21.6883 309.807 21.6883C308.854 21.6883 307.99 21.9118 307.215 22.3586C306.47 22.8055 305.86 23.4609 305.383 24.3249C304.936 25.159 304.713 26.1868 304.713 27.4083C304.713 28.6297 304.936 29.6873 305.383 30.581C305.86 31.445 306.47 32.1004 307.215 32.5472C307.99 32.9941 308.854 33.2175 309.807 33.2175Z" fill="#0F172A"/>
<path d="M343.189 14.9406C345.065 14.9406 346.764 15.3279 348.283 16.1025C349.802 16.8473 350.994 18.0091 351.858 19.5881C352.752 21.167 353.198 23.2077 353.198 25.7102V39.5631H344.708V27.0954C344.708 25.3676 344.35 24.1163 343.635 23.3418C342.95 22.5374 341.982 22.1352 340.731 22.1352C339.837 22.1352 339.018 22.3438 338.273 22.7608C337.528 23.1481 336.947 23.7588 336.53 24.593C336.113 25.4271 335.905 26.5145 335.905 27.8551V39.5631H327.414V15.3428H335.502V22.2246L333.938 20.2137C334.862 18.456 336.128 17.1452 337.737 16.2812C339.346 15.3875 341.163 14.9406 343.189 14.9406Z" fill="#0F172A"/>
<path d="M370.989 39.9652C368.338 39.9652 365.984 39.429 363.929 38.3565C361.873 37.284 360.25 35.8094 359.058 33.9325C357.896 32.0259 357.315 29.8511 357.315 27.4083C357.315 24.9654 357.896 22.8055 359.058 20.9287C360.25 19.0518 361.873 17.5921 363.929 16.5494C365.984 15.4769 368.338 14.9406 370.989 14.9406C373.641 14.9406 375.994 15.4769 378.05 16.5494C380.135 17.5921 381.759 19.0518 382.921 20.9287C384.083 22.8055 384.664 24.9654 384.664 27.4083C384.664 29.8511 384.083 32.0259 382.921 33.9325C381.759 35.8094 380.135 37.284 378.05 38.3565C375.994 39.429 373.641 39.9652 370.989 39.9652ZM370.989 33.2175C371.972 33.2175 372.836 32.9941 373.581 32.5472C374.356 32.1004 374.966 31.445 375.413 30.581C375.86 29.6873 376.084 28.6297 376.084 27.4083C376.084 26.1868 375.86 25.159 375.413 24.3249C374.966 23.4609 374.356 22.8055 373.581 22.3586C372.836 21.9118 371.972 21.6883 370.989 21.6883C370.036 21.6883 369.172 21.9118 368.398 22.3586C367.653 22.8055 367.042 23.4609 366.565 24.3249C366.118 25.159 365.895 26.1868 365.895 27.4083C365.895 28.6297 366.118 29.6873 366.565 30.581C367.042 31.445 367.653 32.1004 368.398 32.5472C369.172 32.9941 370.036 33.2175 370.989 33.2175Z" fill="#0F172A"/>
<path d="M420.146 14.9406C422.022 14.9406 423.691 15.3279 425.15 16.1025C426.64 16.8473 427.802 18.0091 428.636 19.5881C429.5 21.167 429.932 23.2077 429.932 25.7102V39.5631H421.441V27.0954C421.441 25.3676 421.114 24.1163 420.458 23.3418C419.803 22.5374 418.909 22.1352 417.777 22.1352C416.973 22.1352 416.243 22.3289 415.587 22.7161C414.932 23.1034 414.426 23.6993 414.068 24.5036C413.711 25.2782 413.532 26.2911 413.532 27.5423V39.5631H405.041V27.0954C405.041 25.3676 404.714 24.1163 404.058 23.3418C403.433 22.5374 402.539 22.1352 401.377 22.1352C400.543 22.1352 399.798 22.3289 399.143 22.7161C398.517 23.1034 398.011 23.6993 397.623 24.5036C397.266 25.2782 397.087 26.2911 397.087 27.5423V39.5631H388.597V15.3428H396.685V22.0905L395.076 20.169C395.97 18.4411 397.191 17.1452 398.741 16.2812C400.29 15.3875 402.018 14.9406 403.924 14.9406C406.099 14.9406 408.006 15.5067 409.644 16.6387C411.312 17.741 412.43 19.4689 412.996 21.8224L410.225 21.2415C411.089 19.2753 412.385 17.741 414.113 16.6387C415.87 15.5067 417.881 14.9406 420.146 14.9406Z" fill="#0F172A"/>
<path d="M435.291 39.5631V15.3428H443.781V39.5631H435.291ZM439.536 12.6616C437.987 12.6616 436.736 12.2296 435.782 11.3657C434.829 10.5018 434.352 9.42927 434.352 8.14825C434.352 6.86723 434.829 5.79475 435.782 4.9308C436.736 4.06686 437.987 3.63489 439.536 3.63489C441.085 3.63489 442.336 4.05196 443.29 4.88612C444.243 5.69048 444.72 6.73317 444.72 8.01419C444.72 9.3548 444.243 10.472 443.29 11.3657C442.366 12.2296 441.115 12.6616 439.536 12.6616Z" fill="#0F172A"/>
<path d="M464.09 39.5631V35.0497L463.51 33.9325V25.6208C463.51 24.2802 463.092 23.2524 462.258 22.5374C461.454 21.7926 460.158 21.4202 458.371 21.4202C457.209 21.4202 456.032 21.6139 454.84 22.0012C453.649 22.3587 452.636 22.8651 451.802 23.5205L448.942 17.7559C450.312 16.8622 451.951 16.177 453.857 15.7003C455.794 15.1939 457.715 14.9406 459.622 14.9406C463.554 14.9406 466.593 15.8493 468.738 17.6665C470.913 19.454 472 22.2693 472 26.1123V39.5631H464.09ZM456.941 39.9652C455.004 39.9652 453.366 39.6375 452.025 38.9821C450.684 38.3267 449.657 37.433 448.942 36.3009C448.256 35.1689 447.914 33.9027 447.914 32.5026C447.914 31.013 448.286 29.732 449.031 28.6595C449.806 27.5572 450.982 26.7231 452.561 26.157C454.14 25.5612 456.181 25.2633 458.683 25.2633H464.403V29.6873H459.845C458.475 29.6873 457.507 29.9107 456.941 30.3576C456.404 30.8045 456.136 31.4003 456.136 32.1451C456.136 32.8898 456.419 33.4857 456.985 33.9325C457.551 34.3794 458.326 34.6028 459.309 34.6028C460.232 34.6028 461.067 34.3794 461.811 33.9325C462.586 33.4559 463.152 32.7409 463.51 31.7876L464.671 34.9156C464.225 36.5839 463.346 37.8501 462.035 38.714C460.754 39.5482 459.056 39.9652 456.941 39.9652Z" fill="#0F172A"/>
<path d="M144.487 75.5512V62.8291H146.304V75.5512H144.487Z" fill="#0F172A"/>
<path d="M157.183 65.8279C157.971 65.8279 158.661 65.9794 159.255 66.2823C159.861 66.5852 160.333 67.0456 160.673 67.6635C161.012 68.2815 161.182 69.063 161.182 70.008V75.5512H159.437V70.2079C159.437 69.275 159.207 68.5722 158.746 68.0997C158.298 67.6272 157.662 67.3909 156.838 67.3909C156.22 67.3909 155.681 67.5121 155.22 67.7544C154.76 67.9967 154.402 68.3541 154.148 68.8267C153.906 69.2992 153.785 69.8869 153.785 70.5896V75.5512H152.04V65.9188H153.712V68.5177L153.439 67.8271C153.754 67.197 154.239 66.7063 154.893 66.355C155.547 66.0036 156.311 65.8279 157.183 65.8279Z" fill="#0F172A"/>
<path d="M166.846 75.5512V65.0646C166.846 64.1195 167.118 63.3683 167.664 62.8109C168.221 62.2415 169.009 61.9567 170.026 61.9567C170.402 61.9567 170.759 62.0052 171.099 62.1021C171.45 62.1869 171.747 62.3263 171.989 62.5201L171.462 63.8469C171.28 63.7015 171.074 63.5924 170.844 63.5197C170.614 63.4349 170.372 63.3925 170.117 63.3925C169.608 63.3925 169.221 63.5379 168.954 63.8287C168.688 64.1074 168.554 64.5254 168.554 65.0827V66.3731L168.591 67.1728V75.5512H166.846ZM165.21 67.3546V65.9188H171.353V67.3546H165.21Z" fill="#0F172A"/>
<path d="M179.163 75.6603C178.194 75.6603 177.334 75.4482 176.582 75.0242C175.831 74.6001 175.237 74.0185 174.801 73.2794C174.365 72.5282 174.147 71.6801 174.147 70.735C174.147 69.7778 174.365 68.9297 174.801 68.1906C175.237 67.4515 175.831 66.876 176.582 66.464C177.334 66.0399 178.194 65.8279 179.163 65.8279C180.12 65.8279 180.975 66.0399 181.726 66.464C182.489 66.876 183.083 67.4515 183.507 68.1906C183.943 68.9176 184.161 69.7657 184.161 70.735C184.161 71.6922 183.943 72.5403 183.507 73.2794C183.083 74.0185 182.489 74.6001 181.726 75.0242C180.975 75.4482 180.12 75.6603 179.163 75.6603ZM179.163 74.1336C179.781 74.1336 180.332 73.9943 180.817 73.7156C181.314 73.4369 181.702 73.0432 181.98 72.5343C182.259 72.0133 182.398 71.4135 182.398 70.735C182.398 70.0444 182.259 69.4507 181.98 68.9539C181.702 68.445 181.314 68.0512 180.817 67.7726C180.332 67.4939 179.781 67.3546 179.163 67.3546C178.545 67.3546 177.994 67.4939 177.509 67.7726C177.025 68.0512 176.637 68.445 176.346 68.9539C176.055 69.4507 175.91 70.0444 175.91 70.735C175.91 71.4135 176.055 72.0133 176.346 72.5343C176.637 73.0432 177.025 73.4369 177.509 73.7156C177.994 73.9943 178.545 74.1336 179.163 74.1336Z" fill="#0F172A"/>
<path d="M188.755 75.5512V65.9188H190.427V68.5359L190.264 67.8816C190.53 67.2152 190.978 66.7063 191.608 66.355C192.238 66.0036 193.014 65.8279 193.935 65.8279V67.5181C193.862 67.506 193.789 67.4999 193.717 67.4999C193.656 67.4999 193.595 67.4999 193.535 67.4999C192.602 67.4999 191.863 67.7786 191.318 68.336C190.772 68.8933 190.5 69.6991 190.5 70.7532V75.5512H188.755Z" fill="#0F172A"/>
<path d="M210.316 65.8279C211.091 65.8279 211.776 65.9794 212.369 66.2823C212.963 66.5852 213.424 67.0456 213.751 67.6635C214.09 68.2815 214.26 69.063 214.26 70.008V75.5512H212.515V70.2079C212.515 69.275 212.297 68.5722 211.861 68.0997C211.424 67.6272 210.813 67.3909 210.025 67.3909C209.443 67.3909 208.935 67.5121 208.498 67.7544C208.062 67.9967 207.723 68.3541 207.481 68.8267C207.25 69.2992 207.135 69.8869 207.135 70.5896V75.5512H205.39V70.2079C205.39 69.275 205.172 68.5722 204.736 68.0997C204.312 67.6272 203.7 67.3909 202.901 67.3909C202.331 67.3909 201.828 67.5121 201.392 67.7544C200.956 67.9967 200.617 68.3541 200.374 68.8267C200.132 69.2992 200.011 69.8869 200.011 70.5896V75.5512H198.266V65.9188H199.938V68.4814L199.666 67.8271C199.968 67.197 200.435 66.7063 201.065 66.355C201.695 66.0036 202.428 65.8279 203.264 65.8279C204.185 65.8279 204.979 66.0581 205.645 66.5185C206.311 66.9668 206.748 67.6514 206.953 68.5722L206.245 68.2815C206.535 67.5424 207.044 66.9487 207.771 66.5004C208.498 66.0521 209.346 65.8279 210.316 65.8279Z" fill="#0F172A"/>
<path d="M225.63 75.5512V73.5157L225.539 73.134V69.6627C225.539 68.9236 225.321 68.3541 224.885 67.9543C224.461 67.5424 223.819 67.3364 222.959 67.3364C222.389 67.3364 221.832 67.4333 221.287 67.6272C220.741 67.8089 220.281 68.0573 219.905 68.3723L219.178 67.0638C219.675 66.6639 220.269 66.361 220.959 66.155C221.662 65.9369 222.395 65.8279 223.159 65.8279C224.479 65.8279 225.497 66.149 226.212 66.7911C226.927 67.4333 227.284 68.4147 227.284 69.7354V75.5512H225.63ZM222.468 75.6603C221.753 75.6603 221.123 75.5391 220.578 75.2968C220.045 75.0545 219.633 74.7213 219.342 74.2972C219.051 73.861 218.906 73.3703 218.906 72.8251C218.906 72.3041 219.027 71.8315 219.269 71.4075C219.524 70.9834 219.93 70.6441 220.487 70.3897C221.056 70.1352 221.82 70.008 222.777 70.008H225.83V71.2621H222.85C221.977 71.2621 221.39 71.4075 221.087 71.6983C220.784 71.989 220.632 72.3404 220.632 72.7524C220.632 73.2249 220.82 73.6066 221.196 73.8974C221.571 74.176 222.092 74.3154 222.759 74.3154C223.413 74.3154 223.982 74.17 224.467 73.8792C224.964 73.5884 225.321 73.1643 225.539 72.607L225.885 73.8065C225.655 74.376 225.249 74.8303 224.667 75.1696C224.085 75.4967 223.352 75.6603 222.468 75.6603Z" fill="#0F172A"/>
<path d="M236.892 75.6603C235.911 75.6603 235.032 75.4482 234.257 75.0242C233.494 74.6001 232.894 74.0185 232.458 73.2794C232.021 72.5403 231.803 71.6922 231.803 70.735C231.803 69.7778 232.021 68.9297 232.458 68.1906C232.894 67.4515 233.494 66.876 234.257 66.464C235.032 66.0399 235.911 65.8279 236.892 65.8279C237.765 65.8279 238.54 66.0036 239.219 66.355C239.909 66.6942 240.442 67.2031 240.818 67.8816L239.491 68.7358C239.176 68.2633 238.788 67.918 238.328 67.6999C237.88 67.4697 237.395 67.3546 236.874 67.3546C236.244 67.3546 235.681 67.4939 235.184 67.7726C234.687 68.0512 234.293 68.445 234.002 68.9539C233.712 69.4507 233.566 70.0444 233.566 70.735C233.566 71.4256 233.712 72.0254 234.002 72.5343C234.293 73.0432 234.687 73.4369 235.184 73.7156C235.681 73.9943 236.244 74.1336 236.874 74.1336C237.395 74.1336 237.88 74.0246 238.328 73.8065C238.788 73.5763 239.176 73.2249 239.491 72.7524L240.818 73.5884C240.442 74.2548 239.909 74.7697 239.219 75.1332C238.54 75.4846 237.765 75.6603 236.892 75.6603ZM236.038 79.6223C235.723 79.6223 235.432 79.586 235.166 79.5133C234.899 79.4527 234.651 79.3558 234.421 79.2225L234.802 78.3319C234.996 78.441 235.19 78.5197 235.384 78.5682C235.59 78.6167 235.808 78.6409 236.038 78.6409C236.389 78.6409 236.644 78.5743 236.801 78.441C236.971 78.3198 237.056 78.1441 237.056 77.9139C237.056 77.6958 236.971 77.5201 236.801 77.3869C236.644 77.2657 236.383 77.2051 236.02 77.2051H235.529L235.984 75.424H236.983L236.71 76.46C237.231 76.5084 237.625 76.672 237.892 76.9507C238.158 77.2293 238.292 77.5686 238.292 77.9684C238.292 78.4773 238.086 78.8772 237.674 79.168C237.262 79.4709 236.717 79.6223 236.038 79.6223Z" fill="#0F172A"/>
<path d="M251.237 75.5512V73.5157L251.146 73.134V69.6627C251.146 68.9236 250.928 68.3541 250.492 67.9543C250.068 67.5424 249.426 67.3364 248.565 67.3364C247.996 67.3364 247.439 67.4333 246.893 67.6272C246.348 67.8089 245.888 68.0573 245.512 68.3723L244.785 67.0638C245.282 66.6639 245.876 66.361 246.566 66.155C247.269 65.9369 248.002 65.8279 248.765 65.8279C250.086 65.8279 251.104 66.149 251.819 66.7911C252.534 67.4333 252.891 68.4147 252.891 69.7354V75.5512H251.237ZM248.075 75.6603C247.36 75.6603 246.73 75.5391 246.185 75.2968C245.652 75.0545 245.24 74.7213 244.949 74.2972C244.658 73.861 244.513 73.3703 244.513 72.8251C244.513 72.3041 244.634 71.8315 244.876 71.4075C245.131 70.9834 245.536 70.6441 246.094 70.3897C246.663 70.1352 247.427 70.008 248.384 70.008H251.437V71.2621H248.456C247.584 71.2621 246.996 71.4075 246.694 71.6983C246.391 71.989 246.239 72.3404 246.239 72.7524C246.239 73.2249 246.427 73.6066 246.803 73.8974C247.178 74.176 247.699 74.3154 248.366 74.3154C249.02 74.3154 249.589 74.17 250.074 73.8792C250.571 73.5884 250.928 73.1643 251.146 72.607L251.492 73.8065C251.261 74.376 250.855 74.8303 250.274 75.1696C249.692 75.4967 248.959 75.6603 248.075 75.6603ZM250.165 64.4648C249.874 64.4648 249.614 64.4042 249.383 64.2831C249.165 64.1619 248.965 64.0226 248.784 63.8651C248.602 63.6954 248.426 63.55 248.257 63.4289C248.087 63.3077 247.917 63.2471 247.748 63.2471C247.481 63.2471 247.263 63.3501 247.093 63.5561C246.936 63.75 246.845 64.0226 246.821 64.3739H245.839C245.864 63.6954 246.033 63.1563 246.348 62.7564C246.663 62.3566 247.087 62.1567 247.62 62.1567C247.911 62.1567 248.172 62.2233 248.402 62.3566C248.632 62.4777 248.838 62.6231 249.02 62.7928C249.202 62.9503 249.371 63.0896 249.529 63.2108C249.698 63.3319 249.868 63.3925 250.038 63.3925C250.304 63.3925 250.522 63.2956 250.692 63.1017C250.862 62.9079 250.952 62.6413 250.965 62.3021H251.946C251.934 62.9442 251.764 63.4652 251.437 63.8651C251.122 64.2649 250.698 64.4648 250.165 64.4648Z" fill="#0F172A"/>
<path d="M262.426 75.6603C261.457 75.6603 260.597 75.4482 259.846 75.0242C259.094 74.6001 258.501 74.0185 258.064 73.2794C257.628 72.5282 257.41 71.6801 257.41 70.735C257.41 69.7778 257.628 68.9297 258.064 68.1906C258.501 67.4515 259.094 66.876 259.846 66.464C260.597 66.0399 261.457 65.8279 262.426 65.8279C263.384 65.8279 264.238 66.0399 264.989 66.464C265.752 66.876 266.346 67.4515 266.77 68.1906C267.206 68.9176 267.424 69.7657 267.424 70.735C267.424 71.6922 267.206 72.5403 266.77 73.2794C266.346 74.0185 265.752 74.6001 264.989 75.0242C264.238 75.4482 263.384 75.6603 262.426 75.6603ZM262.426 74.1336C263.044 74.1336 263.596 73.9943 264.08 73.7156C264.577 73.4369 264.965 73.0432 265.243 72.5343C265.522 72.0133 265.661 71.4135 265.661 70.735C265.661 70.0444 265.522 69.4507 265.243 68.9539C264.965 68.445 264.577 68.0512 264.08 67.7726C263.596 67.4939 263.044 67.3546 262.426 67.3546C261.808 67.3546 261.257 67.4939 260.772 67.7726C260.288 68.0512 259.9 68.445 259.609 68.9539C259.319 69.4507 259.173 70.0444 259.173 70.735C259.173 71.4135 259.319 72.0133 259.609 72.5343C259.9 73.0432 260.288 73.4369 260.772 73.7156C261.257 73.9943 261.808 74.1336 262.426 74.1336Z" fill="#0F172A"/>
<path d="M283.369 75.6603C282.339 75.6603 281.431 75.4482 280.643 75.0242C279.868 74.6001 279.262 74.0185 278.826 73.2794C278.401 72.5403 278.189 71.6922 278.189 70.735C278.189 69.7778 278.395 68.9297 278.807 68.1906C279.231 67.4515 279.807 66.876 280.534 66.464C281.273 66.0399 282.103 65.8279 283.024 65.8279C283.957 65.8279 284.781 66.0339 285.496 66.4458C286.21 66.8578 286.768 67.4394 287.168 68.1906C287.58 68.9297 287.786 69.796 287.786 70.7895C287.786 70.8622 287.78 70.947 287.767 71.044C287.767 71.1409 287.761 71.2318 287.749 71.3166H279.553V70.0625H286.84L286.132 70.4987C286.144 69.8808 286.017 69.3295 285.75 68.8449C285.483 68.3602 285.114 67.9846 284.641 67.718C284.181 67.4394 283.642 67.3 283.024 67.3C282.418 67.3 281.879 67.4394 281.406 67.718C280.934 67.9846 280.564 68.3663 280.298 68.863C280.031 69.3477 279.898 69.905 279.898 70.5351V70.8259C279.898 71.468 280.043 72.0436 280.334 72.5525C280.637 73.0492 281.055 73.4369 281.588 73.7156C282.121 73.9943 282.733 74.1336 283.424 74.1336C283.993 74.1336 284.508 74.0367 284.969 73.8428C285.441 73.649 285.853 73.3582 286.204 72.9705L287.168 74.0973C286.731 74.6062 286.186 74.9939 285.532 75.2604C284.89 75.527 284.169 75.6603 283.369 75.6603Z" fill="#0F172A"/>
<path d="M299.705 75.5512V62.8291H301.196L309.611 73.2794H308.829V62.8291H310.646V75.5512H309.156L300.741 65.1009H301.523V75.5512H299.705Z" fill="#0F172A"/>
<path d="M320.67 75.6603C319.64 75.6603 318.732 75.4482 317.944 75.0242C317.169 74.6001 316.563 74.0185 316.127 73.2794C315.702 72.5403 315.49 71.6922 315.49 70.735C315.49 69.7778 315.696 68.9297 316.108 68.1906C316.532 67.4515 317.108 66.876 317.835 66.464C318.574 66.0399 319.404 65.8279 320.325 65.8279C321.258 65.8279 322.082 66.0339 322.797 66.4458C323.511 66.8578 324.069 67.4394 324.469 68.1906C324.881 68.9297 325.087 69.796 325.087 70.7895C325.087 70.8622 325.08 70.947 325.068 71.044C325.068 71.1409 325.062 71.2318 325.05 71.3166H316.854V70.0625H324.141L323.433 70.4987C323.445 69.8808 323.318 69.3295 323.051 68.8449C322.784 68.3602 322.415 67.9846 321.942 67.718C321.482 67.4394 320.943 67.3 320.325 67.3C319.719 67.3 319.18 67.4394 318.707 67.718C318.235 67.9846 317.865 68.3663 317.599 68.863C317.332 69.3477 317.199 69.905 317.199 70.5351V70.8259C317.199 71.468 317.344 72.0436 317.635 72.5525C317.938 73.0492 318.356 73.4369 318.889 73.7156C319.422 73.9943 320.034 74.1336 320.725 74.1336C321.294 74.1336 321.809 74.0367 322.269 73.8428C322.742 73.649 323.154 73.3582 323.505 72.9705L324.469 74.0973C324.032 74.6062 323.487 74.9939 322.833 75.2604C322.191 75.527 321.47 75.6603 320.67 75.6603Z" fill="#0F172A"/>
<path d="M333.907 79.1861C333.022 79.1861 332.162 79.0589 331.326 78.8045C330.502 78.5621 329.83 78.2108 329.309 77.7503L330.145 76.4054C330.593 76.7932 331.144 77.0961 331.798 77.3142C332.453 77.5444 333.137 77.6595 333.852 77.6595C334.991 77.6595 335.827 77.3929 336.36 76.8598C336.893 76.3267 337.16 75.5149 337.16 74.4244V72.3889L337.342 70.4806L337.251 68.5541V65.9188H338.905V74.2427C338.905 75.939 338.481 77.1869 337.632 77.9866C336.784 78.7863 335.542 79.1861 333.907 79.1861ZM333.689 75.1514C332.756 75.1514 331.92 74.9575 331.181 74.5698C330.454 74.17 329.872 73.6187 329.436 72.9159C329.012 72.2132 328.8 71.4014 328.8 70.4806C328.8 69.5476 329.012 68.7358 329.436 68.0452C329.872 67.3424 330.454 66.7972 331.181 66.4095C331.92 66.0218 332.756 65.8279 333.689 65.8279C334.512 65.8279 335.264 65.9975 335.942 66.3368C336.621 66.6639 337.16 67.1728 337.56 67.8634C337.972 68.5541 338.178 69.4264 338.178 70.4806C338.178 71.5226 337.972 72.3889 337.56 73.0795C337.16 73.7701 336.621 74.2911 335.942 74.6425C335.264 74.9818 334.512 75.1514 333.689 75.1514ZM333.889 73.6247C334.531 73.6247 335.1 73.4915 335.597 73.2249C336.094 72.9583 336.481 72.5888 336.76 72.1163C337.051 71.6437 337.196 71.0985 337.196 70.4806C337.196 69.8626 337.051 69.3174 336.76 68.8449C336.481 68.3723 336.094 68.0088 335.597 67.7544C335.1 67.4878 334.531 67.3546 333.889 67.3546C333.246 67.3546 332.671 67.4878 332.162 67.7544C331.665 68.0088 331.271 68.3723 330.981 68.8449C330.702 69.3174 330.563 69.8626 330.563 70.4806C330.563 71.0985 330.702 71.6437 330.981 72.1163C331.271 72.5888 331.665 72.9583 332.162 73.2249C332.671 73.4915 333.246 73.6247 333.889 73.6247Z" fill="#0F172A"/>
<path d="M348.545 75.6603C347.576 75.6603 346.715 75.4482 345.964 75.0242C345.213 74.6001 344.619 74.0185 344.183 73.2794C343.747 72.5282 343.529 71.6801 343.529 70.735C343.529 69.7778 343.747 68.9297 344.183 68.1906C344.619 67.4515 345.213 66.876 345.964 66.464C346.715 66.0399 347.576 65.8279 348.545 65.8279C349.502 65.8279 350.356 66.0399 351.108 66.464C351.871 66.876 352.465 67.4515 352.889 68.1906C353.325 68.9176 353.543 69.7657 353.543 70.735C353.543 71.6922 353.325 72.5403 352.889 73.2794C352.465 74.0185 351.871 74.6001 351.108 75.0242C350.356 75.4482 349.502 75.6603 348.545 75.6603ZM348.545 74.1336C349.163 74.1336 349.714 73.9943 350.199 73.7156C350.696 73.4369 351.083 73.0432 351.362 72.5343C351.641 72.0133 351.78 71.4135 351.78 70.735C351.78 70.0444 351.641 69.4507 351.362 68.9539C351.083 68.445 350.696 68.0512 350.199 67.7726C349.714 67.4939 349.163 67.3546 348.545 67.3546C347.927 67.3546 347.376 67.4939 346.891 67.7726C346.406 68.0512 346.019 68.445 345.728 68.9539C345.437 69.4507 345.292 70.0444 345.292 70.735C345.292 71.4135 345.437 72.0133 345.728 72.5343C346.019 73.0432 346.406 73.4369 346.891 73.7156C347.376 73.9943 347.927 74.1336 348.545 74.1336ZM347.164 64.5193L349.635 62.1567H351.853L348.799 64.5193H347.164Z" fill="#0F172A"/>
<path d="M362.335 75.6603C361.354 75.6603 360.475 75.4482 359.7 75.0242C358.936 74.6001 358.337 74.0185 357.901 73.2794C357.464 72.5403 357.246 71.6922 357.246 70.735C357.246 69.7778 357.464 68.9297 357.901 68.1906C358.337 67.4515 358.936 66.876 359.7 66.464C360.475 66.0399 361.354 65.8279 362.335 65.8279C363.207 65.8279 363.983 66.0036 364.661 66.355C365.352 66.6942 365.885 67.2031 366.261 67.8816L364.934 68.7358C364.619 68.2633 364.231 67.918 363.771 67.6999C363.323 67.4697 362.838 67.3546 362.317 67.3546C361.687 67.3546 361.123 67.4939 360.627 67.7726C360.13 68.0512 359.736 68.445 359.445 68.9539C359.155 69.4507 359.009 70.0444 359.009 70.735C359.009 71.4256 359.155 72.0254 359.445 72.5343C359.736 73.0432 360.13 73.4369 360.627 73.7156C361.123 73.9943 361.687 74.1336 362.317 74.1336C362.838 74.1336 363.323 74.0246 363.771 73.8065C364.231 73.5763 364.619 73.2249 364.934 72.7524L366.261 73.5884C365.885 74.2548 365.352 74.7697 364.661 75.1332C363.983 75.4846 363.207 75.6603 362.335 75.6603Z" fill="#0F172A"/>
<path d="M370.576 75.5512V65.9188H372.321V75.5512H370.576ZM371.449 64.065C371.109 64.065 370.825 63.9559 370.595 63.7378C370.376 63.5197 370.267 63.2532 370.267 62.9382C370.267 62.611 370.376 62.3384 370.595 62.1203C370.825 61.9022 371.109 61.7932 371.449 61.7932C371.788 61.7932 372.067 61.9022 372.285 62.1203C372.515 62.3263 372.63 62.5868 372.63 62.9018C372.63 63.2289 372.521 63.5076 372.303 63.7378C372.085 63.9559 371.8 64.065 371.449 64.065Z" fill="#0F172A"/>
<path d="M381.959 75.6603C380.99 75.6603 380.129 75.4482 379.378 75.0242C378.627 74.6001 378.033 74.0185 377.597 73.2794C377.161 72.5282 376.943 71.6801 376.943 70.735C376.943 69.7778 377.161 68.9297 377.597 68.1906C378.033 67.4515 378.627 66.876 379.378 66.464C380.129 66.0399 380.99 65.8279 381.959 65.8279C382.916 65.8279 383.77 66.0399 384.522 66.464C385.285 66.876 385.879 67.4515 386.303 68.1906C386.739 68.9176 386.957 69.7657 386.957 70.735C386.957 71.6922 386.739 72.5403 386.303 73.2794C385.879 74.0185 385.285 74.6001 384.522 75.0242C383.77 75.4482 382.916 75.6603 381.959 75.6603ZM381.959 74.1336C382.577 74.1336 383.128 73.9943 383.613 73.7156C384.11 73.4369 384.497 73.0432 384.776 72.5343C385.055 72.0133 385.194 71.4135 385.194 70.735C385.194 70.0444 385.055 69.4507 384.776 68.9539C384.497 68.445 384.11 68.0512 383.613 67.7726C383.128 67.4939 382.577 67.3546 381.959 67.3546C381.341 67.3546 380.79 67.4939 380.305 67.7726C379.82 68.0512 379.433 68.445 379.142 68.9539C378.851 69.4507 378.706 70.0444 378.706 70.735C378.706 71.4135 378.851 72.0133 379.142 72.5343C379.433 73.0432 379.82 73.4369 380.305 73.7156C380.79 73.9943 381.341 74.1336 381.959 74.1336Z" fill="#0F172A"/>
<path d="M394.313 75.6603C393.514 75.6603 392.75 75.5512 392.023 75.3331C391.309 75.1151 390.745 74.8485 390.333 74.5335L391.06 73.1522C391.472 73.4309 391.981 73.6672 392.587 73.861C393.193 74.0549 393.811 74.1518 394.441 74.1518C395.252 74.1518 395.834 74.0367 396.185 73.8065C396.549 73.5763 396.731 73.2552 396.731 72.8432C396.731 72.5403 396.622 72.3041 396.403 72.1344C396.185 71.9648 395.895 71.8376 395.531 71.7528C395.18 71.668 394.786 71.5953 394.35 71.5347C393.914 71.462 393.477 71.3772 393.041 71.2802C392.605 71.1712 392.205 71.0258 391.842 70.8441C391.478 70.6502 391.187 70.3897 390.969 70.0625C390.751 69.7233 390.642 69.275 390.642 68.7176C390.642 68.1361 390.806 67.6272 391.133 67.191C391.46 66.7548 391.92 66.4216 392.514 66.1914C393.12 65.9491 393.835 65.8279 394.659 65.8279C395.289 65.8279 395.925 65.9067 396.567 66.0642C397.221 66.2096 397.754 66.4216 398.166 66.7003L397.421 68.0815C396.985 67.7907 396.531 67.5908 396.058 67.4818C395.586 67.3727 395.113 67.3182 394.64 67.3182C393.877 67.3182 393.308 67.4454 392.932 67.6999C392.556 67.9422 392.369 68.2572 392.369 68.6449C392.369 68.9721 392.478 69.2265 392.696 69.4083C392.926 69.5779 393.217 69.7112 393.568 69.8081C393.932 69.905 394.332 69.9899 394.768 70.0625C395.204 70.1231 395.64 70.2079 396.076 70.317C396.512 70.4139 396.906 70.5533 397.258 70.735C397.621 70.9167 397.912 71.1712 398.13 71.4983C398.36 71.8255 398.475 72.2617 398.475 72.8069C398.475 73.3885 398.306 73.8913 397.966 74.3154C397.627 74.7394 397.149 75.0726 396.531 75.315C395.913 75.5452 395.174 75.6603 394.313 75.6603Z" fill="#0F172A"/>
</svg>
